<?xml version="1.0" encoding="utf-8"?>
<!-- Generator: Adobe Illustrator 16.0.0, SVG Export Plug-In . SVG Version: 6.00 Build 0)  -->
<!DOCTYPE svg PUBLIC "-//W3C//DTD SVG 1.1//EN" "http://www.w3.org/Graphics/SVG/1.1/DTD/svg11.dtd">
<svg version="1.1" id="V1_copy" xmlns="http://www.w3.org/2000/svg" xmlns:xlink="http://www.w3.org/1999/xlink" x="0px" y="0px"
	 width="301px" height="98.48px" viewBox="0 0 301 98.48" enable-background="new 0 0 301 98.48" xml:space="preserve">
<g>
	<g>
		<g>
			<path d="M123.752,71.803c0,0.918-0.313,1.62-0.94,2.117c-0.626,0.496-1.525,0.742-2.692,0.742h-1.069v3.571h-1.055v-9.078h2.354
				C122.618,69.155,123.752,70.04,123.752,71.803z M119.051,73.756h0.951c0.936,0,1.612-0.147,2.03-0.454
				c0.418-0.3,0.628-0.788,0.628-1.449c0-0.603-0.197-1.051-0.589-1.343c-0.394-0.293-1.008-0.443-1.839-0.443h-1.181V73.756z"/>
		</g>
		<g>
			<path d="M126.709,74.462v3.771h-1.057v-9.078h2.491c1.115,0,1.938,0.215,2.468,0.637c0.533,0.431,0.799,1.069,0.799,1.926
				c0,1.199-0.609,2.015-1.826,2.435l2.466,4.081h-1.249l-2.198-3.771H126.709z M126.709,73.555h1.447
				c0.746,0,1.292-0.151,1.64-0.445c0.349-0.295,0.521-0.739,0.521-1.337c0-0.596-0.176-1.03-0.531-1.298
				c-0.354-0.26-0.922-0.397-1.705-0.397h-1.373V73.555z"/>
		</g>
		<g>
			<path d="M141.399,73.683c0,1.456-0.368,2.599-1.104,3.425c-0.734,0.835-1.757,1.256-3.064,1.256c-1.337,0-2.371-0.415-3.097-1.23
				c-0.727-0.82-1.091-1.973-1.091-3.461c0-1.478,0.365-2.629,1.095-3.439c0.728-0.813,1.763-1.225,3.105-1.225
				c1.304,0,2.323,0.419,3.056,1.243C141.032,71.081,141.399,72.224,141.399,73.683z M134.163,73.683
				c0,1.232,0.262,2.161,0.786,2.796c0.524,0.641,1.285,0.954,2.283,0.954c1.005,0,1.766-0.313,2.279-0.951
				c0.513-0.634,0.77-1.563,0.77-2.799c0-1.225-0.255-2.148-0.767-2.778c-0.511-0.631-1.267-0.95-2.27-0.95
				c-1.006,0-1.771,0.321-2.295,0.955C134.424,71.543,134.163,72.473,134.163,73.683z"/>
		</g>
		<g>
			<path d="M147.418,73.476h3.087v4.416c-0.481,0.155-0.97,0.271-1.464,0.348c-0.499,0.082-1.074,0.124-1.73,0.124
				c-1.374,0-2.445-0.415-3.21-1.23c-0.766-0.82-1.149-1.965-1.149-3.439c0-0.946,0.189-1.769,0.568-2.482
				c0.379-0.707,0.924-1.252,1.636-1.622c0.714-0.378,1.547-0.563,2.502-0.563c0.97,0,1.873,0.178,2.708,0.532l-0.409,0.935
				c-0.82-0.354-1.61-0.526-2.368-0.526c-1.104,0-1.967,0.33-2.588,0.991c-0.622,0.654-0.933,1.573-0.933,2.736
				c0,1.229,0.299,2.154,0.898,2.788c0.599,0.639,1.478,0.951,2.637,0.951c0.628,0,1.242-0.07,1.845-0.219v-2.792h-2.031V73.476z"/>
		</g>
		<g>
			<path d="M153.742,74.462v3.771h-1.059v-9.078h2.491c1.115,0,1.936,0.215,2.472,0.637c0.529,0.431,0.797,1.069,0.797,1.926
				c0,1.199-0.609,2.015-1.827,2.435l2.466,4.081h-1.248l-2.2-3.771H153.742z M153.742,73.555h1.443
				c0.748,0,1.294-0.151,1.642-0.445c0.346-0.295,0.522-0.739,0.522-1.337c0-0.596-0.18-1.03-0.532-1.298
				c-0.352-0.26-0.92-0.397-1.703-0.397h-1.372V73.555z"/>
		</g>
		<g>
			<path d="M166.259,78.233l-1.132-2.889h-3.642l-1.115,2.889h-1.069l3.588-9.119h0.89l3.57,9.119H166.259z M164.797,74.399
				l-1.059-2.814c-0.134-0.355-0.278-0.795-0.419-1.311c-0.094,0.396-0.222,0.83-0.392,1.311l-1.07,2.814H164.797z"/>
		</g>
		<g>
			<path d="M172.616,78.233l-3.077-8.05h-0.052c0.059,0.637,0.084,1.397,0.084,2.272v5.777h-0.974v-9.078h1.589l2.878,7.487h0.051
				l2.899-7.487h1.578v9.078h-1.059v-5.85c0-0.672,0.032-1.402,0.09-2.188h-0.049l-3.108,8.038H172.616z"/>
		</g>
		<g>
			<path d="M184.103,78.233l-3.084-8.05h-0.05c0.06,0.637,0.088,1.397,0.088,2.272v5.777h-0.973v-9.078h1.59l2.877,7.487h0.052
				l2.897-7.487h1.579v9.078h-1.059v-5.85c0-0.672,0.025-1.402,0.083-2.188h-0.043l-3.107,8.038H184.103z"/>
		</g>
		<g>
			<path d="M191.57,78.233v-9.078h1.051v9.078H191.57z"/>
		</g>
		<g>
			<path d="M202.204,78.233H201l-4.959-7.617h-0.049c0.064,0.896,0.093,1.712,0.093,2.457v5.16h-0.973v-9.078h1.191l4.955,7.589
				h0.05c-0.014-0.112-0.03-0.469-0.056-1.077c-0.033-0.608-0.042-1.037-0.034-1.301v-5.211h0.985V78.233z"/>
		</g>
		<g>
			<path d="M208.698,73.476h3.087v4.416c-0.48,0.155-0.972,0.271-1.464,0.348c-0.499,0.082-1.073,0.124-1.73,0.124
				c-1.373,0-2.444-0.415-3.212-1.23c-0.764-0.82-1.148-1.965-1.148-3.439c0-0.946,0.193-1.769,0.568-2.482
				c0.381-0.707,0.929-1.252,1.638-1.622c0.715-0.378,1.545-0.563,2.501-0.563c0.969,0,1.871,0.178,2.71,0.532l-0.408,0.935
				c-0.824-0.354-1.612-0.526-2.368-0.526c-1.103,0-1.971,0.33-2.593,0.991c-0.62,0.654-0.928,1.573-0.928,2.736
				c0,1.229,0.297,2.154,0.898,2.788c0.595,0.639,1.477,0.951,2.633,0.951c0.628,0,1.244-0.07,1.848-0.219v-2.792h-2.031V73.476z"/>
		</g>
		<g>
			<path d="M217.267,78.233v-9.078h1.058v8.121h4.008v0.957H217.267z"/>
		</g>
		<g>
			<path d="M229.582,78.233l-1.131-2.889h-3.642l-1.116,2.889h-1.069l3.588-9.119h0.89l3.57,9.119H229.582z M228.12,74.399
				l-1.058-2.814c-0.135-0.355-0.277-0.795-0.42-1.311c-0.094,0.396-0.222,0.83-0.392,1.311l-1.07,2.814H228.12z"/>
		</g>
		<g>
			<path d="M239.013,78.233h-1.203l-4.964-7.617h-0.048c0.067,0.896,0.096,1.712,0.096,2.457v5.16h-0.973v-9.078h1.191l4.952,7.589
				h0.047c-0.008-0.112-0.024-0.469-0.055-1.077c-0.027-0.608-0.036-1.037-0.028-1.301v-5.211h0.984V78.233z"/>
		</g>
		<g>
			<path d="M245.506,73.476h3.086v4.416c-0.479,0.155-0.971,0.271-1.465,0.348c-0.495,0.082-1.073,0.124-1.728,0.124
				c-1.373,0-2.444-0.415-3.214-1.23c-0.763-0.82-1.147-1.965-1.147-3.439c0-0.946,0.187-1.769,0.568-2.482
				c0.382-0.707,0.924-1.252,1.638-1.622c0.712-0.378,1.545-0.563,2.502-0.563c0.968,0,1.871,0.178,2.709,0.532l-0.408,0.935
				c-0.823-0.354-1.612-0.526-2.367-0.526c-1.106,0-1.972,0.33-2.594,0.991c-0.62,0.654-0.928,1.573-0.928,2.736
				c0,1.229,0.298,2.154,0.896,2.788c0.597,0.639,1.479,0.951,2.635,0.951c0.628,0,1.245-0.07,1.849-0.219v-2.792h-2.032V73.476z"/>
		</g>
		<g>
			<path d="M257.63,69.155v5.877c0,1.033-0.313,1.845-0.94,2.44c-0.624,0.589-1.484,0.891-2.574,0.891
				c-1.093,0-1.939-0.304-2.539-0.896c-0.598-0.6-0.898-1.417-0.898-2.465v-5.848h1.059v5.927c0,0.756,0.206,1.336,0.621,1.74
				c0.411,0.411,1.022,0.61,1.824,0.61c0.77,0,1.357-0.2,1.77-0.613c0.418-0.406,0.62-0.989,0.62-1.754v-5.91H257.63z"/>
		</g>
		<g>
			<path d="M265.74,78.233l-1.131-2.889h-3.638l-1.119,2.889h-1.069l3.595-9.119h0.886l3.571,9.119H265.74z M264.282,74.399
				l-1.055-2.814c-0.14-0.355-0.279-0.795-0.425-1.311c-0.088,0.396-0.22,0.83-0.393,1.311l-1.066,2.814H264.282z"/>
		</g>
		<g>
			<path d="M272.077,73.476h3.087v4.416c-0.481,0.155-0.97,0.271-1.467,0.348c-0.495,0.082-1.072,0.124-1.727,0.124
				c-1.373,0-2.444-0.415-3.21-1.23c-0.767-0.82-1.151-1.965-1.151-3.439c0-0.946,0.19-1.769,0.568-2.482
				c0.382-0.707,0.926-1.252,1.638-1.622c0.713-0.378,1.547-0.563,2.501-0.563c0.972,0,1.872,0.178,2.71,0.532l-0.408,0.935
				c-0.821-0.354-1.609-0.526-2.368-0.526c-1.105,0-1.971,0.33-2.592,0.991c-0.618,0.654-0.93,1.573-0.93,2.736
				c0,1.229,0.299,2.154,0.899,2.788c0.596,0.639,1.477,0.951,2.634,0.951c0.63,0,1.244-0.07,1.847-0.219v-2.792h-2.031V73.476z"/>
		</g>
		<g>
			<path d="M282.405,78.233h-5.062v-9.078h5.062v0.939h-4.007v2.921h3.765v0.937h-3.765v3.342h4.007V78.233z"/>
		</g>
	</g>
	<g>
		<g>
			<g>
				<path d="M119.308,20.233h13.183c6.007,0,10.367,0.855,13.081,2.564s4.07,4.429,4.07,8.156c0,2.53-0.594,4.606-1.781,6.229
					c-1.188,1.623-2.768,2.599-4.736,2.927v0.29c2.685,0.599,4.62,1.719,5.809,3.36c1.187,1.642,1.782,3.824,1.782,6.548
					c0,3.863-1.396,6.877-4.188,9.04s-6.582,3.244-11.371,3.244h-15.849V20.233z M128.29,37.009h5.215
					c2.433,0,4.195-0.377,5.287-1.13c1.091-0.753,1.637-1.999,1.637-3.737c0-1.622-0.594-2.786-1.782-3.491
					c-1.188-0.704-3.066-1.058-5.635-1.058h-4.722V37.009z M128.29,44.136v11.039h5.852c2.473,0,4.298-0.472,5.477-1.42
					c1.178-0.945,1.767-2.394,1.767-4.346c0-3.515-2.511-5.273-7.532-5.273H128.29z"/>
			</g>
			<g>
				<path d="M173.14,63.172c-5.216,0-9.291-1.439-12.227-4.317c-2.937-2.877-4.404-6.953-4.404-12.227
					c0-5.427,1.356-9.623,4.07-12.589c2.714-2.964,6.466-4.447,11.257-4.447c4.577,0,8.142,1.304,10.69,3.911
					c2.55,2.608,3.825,6.21,3.825,10.807v4.288h-20.891c0.097,2.512,0.841,4.473,2.231,5.883c1.391,1.409,3.341,2.114,5.854,2.114
					c1.949,0,3.794-0.203,5.532-0.607c1.738-0.406,3.555-1.054,5.447-1.942v6.838c-1.546,0.772-3.196,1.347-4.954,1.724
					C177.813,62.982,175.669,63.172,173.14,63.172z M171.894,35.879c-1.873,0-3.342,0.594-4.404,1.782
					c-1.063,1.188-1.67,2.873-1.825,5.056h12.4c-0.039-2.183-0.607-3.868-1.709-5.056C175.254,36.473,173.768,35.879,171.894,35.879
					z"/>
			</g>
			<g>
				<path d="M214.107,62.592l-1.71-4.403h-0.232c-1.487,1.873-3.018,3.172-4.591,3.896c-1.574,0.724-3.627,1.087-6.157,1.087
					c-3.109,0-5.559-0.889-7.345-2.666c-1.787-1.776-2.679-4.307-2.679-7.591c0-3.438,1.202-5.973,3.606-7.605
					c2.404-1.632,6.03-2.535,10.878-2.709l5.622-0.174v-1.42c0-3.283-1.681-4.925-5.042-4.925c-2.588,0-5.631,0.782-9.127,2.347
					l-2.926-5.969c3.728-1.95,7.861-2.926,12.4-2.926c4.347,0,7.678,0.946,9.996,2.839c2.318,1.894,3.478,4.771,3.478,8.634v21.585
					H214.107z M211.5,47.584l-3.42,0.116c-2.568,0.077-4.48,0.541-5.736,1.391c-1.255,0.85-1.883,2.144-1.883,3.883
					c0,2.491,1.429,3.737,4.287,3.737c2.048,0,3.685-0.589,4.911-1.768c1.227-1.178,1.841-2.743,1.841-4.694V47.584z"/>
			</g>
			<g>
				<path d="M251.974,52.974c0,3.321-1.154,5.853-3.462,7.591c-2.309,1.739-5.762,2.607-10.357,2.607
					c-2.356,0-4.366-0.16-6.026-0.479c-1.662-0.317-3.217-0.787-4.665-1.404v-7.302c1.642,0.772,3.491,1.42,5.549,1.941
					c2.057,0.521,3.867,0.782,5.433,0.782c3.205,0,4.809-0.927,4.809-2.781c0-0.695-0.212-1.261-0.637-1.695
					s-1.159-0.927-2.203-1.478c-1.042-0.551-2.433-1.192-4.172-1.927c-2.492-1.043-4.321-2.009-5.489-2.897
					c-1.169-0.888-2.02-1.907-2.55-3.057c-0.532-1.148-0.797-2.563-0.797-4.244c0-2.879,1.115-5.104,3.347-6.679
					c2.23-1.574,5.393-2.361,9.487-2.361c3.902,0,7.697,0.851,11.387,2.55l-2.666,6.374c-1.621-0.695-3.138-1.265-4.548-1.709
					s-2.849-0.666-4.317-0.666c-2.607,0-3.911,0.705-3.911,2.114c0,0.792,0.42,1.478,1.261,2.058c0.84,0.578,2.68,1.438,5.52,2.578
					c2.529,1.023,4.384,1.98,5.563,2.868c1.179,0.889,2.047,1.912,2.607,3.071S251.974,51.37,251.974,52.974z"/>
			</g>
			<g>
				<path d="M272.516,56.132c1.545,0,3.399-0.338,5.563-1.015v6.577c-2.201,0.985-4.906,1.478-8.111,1.478
					c-3.536,0-6.109-0.893-7.722-2.68c-1.613-1.787-2.419-4.466-2.419-8.041V36.835h-4.23v-3.737l4.867-2.955l2.55-6.838h5.65V30.2
					h9.067v6.635h-9.067v15.616c0,1.256,0.352,2.184,1.058,2.781C270.424,55.833,271.357,56.132,272.516,56.132z"/>
			</g>
		</g>
	</g>
</g>
<g>
	<path d="M18.924,70.011L4.103,7.077L52.01,19.874L99.917,7.077L85.096,70.011L52.01,91.402L18.924,70.011z M73.922,54.709
		l7.198-11.315L59.153,50.68l0.089,1.307L73.922,54.709z M30.098,54.709l14.68-2.723l0.089-1.307l-21.967-7.286L30.098,54.709z
		 M59.996,45.652l22.245-6.871l0.432-3.448L59.58,45.541L59.996,45.652z M44.024,45.652l0.416-0.111L21.347,35.333l0.432,3.448
		L44.024,45.652z M90.792,27.724l3.212-15.409l-13.225,3.459L90.792,27.724z M13.228,27.724l10.013-11.949l-13.225-3.459
		L13.228,27.724z"/>
</g>
</svg>
